<mxfile host="Electron" modified="2023-11-24T14:09:39.000Z" agent="Mozilla/5.0 (Macintosh; Intel Mac OS X 10_15_7) AppleWebKit/537.36 (KHTML, like Gecko) draw.io/21.2.1 Chrome/112.0.5615.87 Electron/24.1.2 Safari/537.36" etag="_jI1c8nUjxepVTNKz7jt" version="21.2.1" type="device">
  <diagram id="y1kWOpUGHuxIJ3yEuqZ7" name="Page-1">
    <mxGraphModel dx="2616" dy="2360" grid="1" gridSize="10" guides="1" tooltips="1" connect="1" arrows="1" fold="1" page="1" pageScale="1" pageWidth="827" pageHeight="1169" math="0" shadow="0">
      <root>
        <mxCell id="0" />
        <mxCell id="1" parent="0" />
        <mxCell id="2GTVWRp6U-cZcLKtKoB1-3" value="" style="group" parent="1" vertex="1" connectable="0" treatAsSingle="0">
          <mxGeometry x="-250" y="-1040" width="915" height="470" as="geometry" />
        </mxCell>
        <mxCell id="rLoegdF59TgYcEcmEnVo-97" value="" style="rounded=0;whiteSpace=wrap;html=1;dashed=1;" parent="2GTVWRp6U-cZcLKtKoB1-3" vertex="1">
          <mxGeometry x="135" width="760" height="70" as="geometry" />
        </mxCell>
        <mxCell id="LMLSj2MRwrwGWkM6ZcZf-3" value="" style="fontColor=#0066CC;verticalAlign=top;verticalLabelPosition=bottom;labelPosition=center;align=center;html=1;outlineConnect=0;fillColor=#CCCCCC;strokeColor=#6881B3;gradientDirection=north;strokeWidth=2;shape=mxgraph.networks.switch;" parent="2GTVWRp6U-cZcLKtKoB1-3" vertex="1">
          <mxGeometry x="150" y="20" width="170" height="40" as="geometry" />
        </mxCell>
        <mxCell id="LMLSj2MRwrwGWkM6ZcZf-53" value="" style="group" parent="2GTVWRp6U-cZcLKtKoB1-3" vertex="1" connectable="0" treatAsSingle="0">
          <mxGeometry x="115" y="140" width="240" height="260" as="geometry" />
        </mxCell>
        <mxCell id="LMLSj2MRwrwGWkM6ZcZf-52" value="" style="rounded=0;whiteSpace=wrap;html=1;dashed=1;shadow=0;glass=0;" parent="LMLSj2MRwrwGWkM6ZcZf-53" vertex="1">
          <mxGeometry width="240" height="260" as="geometry" />
        </mxCell>
        <mxCell id="LMLSj2MRwrwGWkM6ZcZf-4" value="" style="verticalLabelPosition=bottom;aspect=fixed;html=1;verticalAlign=top;strokeColor=none;align=center;outlineConnect=0;shape=mxgraph.citrix.switch;" parent="LMLSj2MRwrwGWkM6ZcZf-53" vertex="1">
          <mxGeometry x="10" y="120" width="40" height="18.04" as="geometry" />
        </mxCell>
        <mxCell id="LMLSj2MRwrwGWkM6ZcZf-7" value="" style="fontColor=#0066CC;verticalAlign=top;verticalLabelPosition=bottom;labelPosition=center;align=center;html=1;outlineConnect=0;fillColor=#CCCCCC;strokeColor=#6881B3;gradientDirection=north;strokeWidth=2;shape=mxgraph.networks.server;" parent="LMLSj2MRwrwGWkM6ZcZf-53" vertex="1">
          <mxGeometry x="10" y="180" width="40" height="70" as="geometry" />
        </mxCell>
        <mxCell id="LMLSj2MRwrwGWkM6ZcZf-8" value="" style="fontColor=#0066CC;verticalAlign=top;verticalLabelPosition=bottom;labelPosition=center;align=center;html=1;outlineConnect=0;fillColor=#CCCCCC;strokeColor=#6881B3;gradientDirection=north;strokeWidth=2;shape=mxgraph.networks.server;" parent="LMLSj2MRwrwGWkM6ZcZf-53" vertex="1">
          <mxGeometry x="70" y="180" width="40" height="70" as="geometry" />
        </mxCell>
        <mxCell id="LMLSj2MRwrwGWkM6ZcZf-9" value="" style="fontColor=#0066CC;verticalAlign=top;verticalLabelPosition=bottom;labelPosition=center;align=center;html=1;outlineConnect=0;fillColor=#CCCCCC;strokeColor=#6881B3;gradientDirection=north;strokeWidth=2;shape=mxgraph.networks.server;" parent="LMLSj2MRwrwGWkM6ZcZf-53" vertex="1">
          <mxGeometry x="130" y="180" width="40" height="70" as="geometry" />
        </mxCell>
        <mxCell id="LMLSj2MRwrwGWkM6ZcZf-19" value="" style="fontColor=#0066CC;verticalAlign=top;verticalLabelPosition=bottom;labelPosition=center;align=center;html=1;outlineConnect=0;fillColor=#CCCCCC;strokeColor=#6881B3;gradientDirection=north;strokeWidth=2;shape=mxgraph.networks.server;" parent="LMLSj2MRwrwGWkM6ZcZf-53" vertex="1">
          <mxGeometry x="190" y="179" width="40" height="70" as="geometry" />
        </mxCell>
        <mxCell id="LMLSj2MRwrwGWkM6ZcZf-24" value="" style="verticalLabelPosition=bottom;aspect=fixed;html=1;verticalAlign=top;strokeColor=none;align=center;outlineConnect=0;shape=mxgraph.citrix.switch;" parent="LMLSj2MRwrwGWkM6ZcZf-53" vertex="1">
          <mxGeometry x="70" y="120" width="40" height="18.04" as="geometry" />
        </mxCell>
        <mxCell id="LMLSj2MRwrwGWkM6ZcZf-25" value="" style="verticalLabelPosition=bottom;aspect=fixed;html=1;verticalAlign=top;strokeColor=none;align=center;outlineConnect=0;shape=mxgraph.citrix.switch;" parent="LMLSj2MRwrwGWkM6ZcZf-53" vertex="1">
          <mxGeometry x="130" y="120" width="40" height="18.04" as="geometry" />
        </mxCell>
        <mxCell id="LMLSj2MRwrwGWkM6ZcZf-26" value="" style="verticalLabelPosition=bottom;aspect=fixed;html=1;verticalAlign=top;strokeColor=none;align=center;outlineConnect=0;shape=mxgraph.citrix.switch;" parent="LMLSj2MRwrwGWkM6ZcZf-53" vertex="1">
          <mxGeometry x="190" y="120" width="40" height="18.04" as="geometry" />
        </mxCell>
        <mxCell id="LMLSj2MRwrwGWkM6ZcZf-27" value="" style="verticalLabelPosition=bottom;aspect=fixed;html=1;verticalAlign=top;strokeColor=none;align=center;outlineConnect=0;shape=mxgraph.citrix.switch;" parent="LMLSj2MRwrwGWkM6ZcZf-53" vertex="1">
          <mxGeometry x="10" y="10" width="40" height="18.04" as="geometry" />
        </mxCell>
        <mxCell id="LMLSj2MRwrwGWkM6ZcZf-28" value="" style="verticalLabelPosition=bottom;aspect=fixed;html=1;verticalAlign=top;strokeColor=none;align=center;outlineConnect=0;shape=mxgraph.citrix.switch;" parent="LMLSj2MRwrwGWkM6ZcZf-53" vertex="1">
          <mxGeometry x="70" y="10" width="40" height="18.04" as="geometry" />
        </mxCell>
        <mxCell id="LMLSj2MRwrwGWkM6ZcZf-29" value="" style="verticalLabelPosition=bottom;aspect=fixed;html=1;verticalAlign=top;strokeColor=none;align=center;outlineConnect=0;shape=mxgraph.citrix.switch;" parent="LMLSj2MRwrwGWkM6ZcZf-53" vertex="1">
          <mxGeometry x="130" y="10" width="40" height="18.04" as="geometry" />
        </mxCell>
        <mxCell id="LMLSj2MRwrwGWkM6ZcZf-30" value="" style="verticalLabelPosition=bottom;aspect=fixed;html=1;verticalAlign=top;strokeColor=none;align=center;outlineConnect=0;shape=mxgraph.citrix.switch;" parent="LMLSj2MRwrwGWkM6ZcZf-53" vertex="1">
          <mxGeometry x="190" y="10" width="40" height="18.04" as="geometry" />
        </mxCell>
        <mxCell id="LMLSj2MRwrwGWkM6ZcZf-32" value="" style="endArrow=none;html=1;" parent="LMLSj2MRwrwGWkM6ZcZf-53" source="LMLSj2MRwrwGWkM6ZcZf-4" edge="1">
          <mxGeometry width="50" height="50" relative="1" as="geometry">
            <mxPoint x="-20" y="78.04000000000002" as="sourcePoint" />
            <mxPoint x="30" y="28.04000000000002" as="targetPoint" />
          </mxGeometry>
        </mxCell>
        <mxCell id="LMLSj2MRwrwGWkM6ZcZf-33" value="" style="endArrow=none;html=1;" parent="LMLSj2MRwrwGWkM6ZcZf-53" edge="1">
          <mxGeometry width="50" height="50" relative="1" as="geometry">
            <mxPoint x="89.58" y="120" as="sourcePoint" />
            <mxPoint x="89.58" y="28.039999999999964" as="targetPoint" />
          </mxGeometry>
        </mxCell>
        <mxCell id="LMLSj2MRwrwGWkM6ZcZf-34" value="" style="endArrow=none;html=1;" parent="LMLSj2MRwrwGWkM6ZcZf-53" edge="1">
          <mxGeometry width="50" height="50" relative="1" as="geometry">
            <mxPoint x="149.58000000000004" y="120" as="sourcePoint" />
            <mxPoint x="149.58000000000004" y="28.039999999999964" as="targetPoint" />
          </mxGeometry>
        </mxCell>
        <mxCell id="LMLSj2MRwrwGWkM6ZcZf-35" value="" style="endArrow=none;html=1;" parent="LMLSj2MRwrwGWkM6ZcZf-53" edge="1">
          <mxGeometry width="50" height="50" relative="1" as="geometry">
            <mxPoint x="209.58000000000004" y="120" as="sourcePoint" />
            <mxPoint x="209.58000000000004" y="28.039999999999964" as="targetPoint" />
          </mxGeometry>
        </mxCell>
        <mxCell id="LMLSj2MRwrwGWkM6ZcZf-36" value="" style="endArrow=none;html=1;" parent="LMLSj2MRwrwGWkM6ZcZf-53" edge="1">
          <mxGeometry width="50" height="50" relative="1" as="geometry">
            <mxPoint x="90" y="120" as="sourcePoint" />
            <mxPoint x="30" y="28.04000000000002" as="targetPoint" />
          </mxGeometry>
        </mxCell>
        <mxCell id="LMLSj2MRwrwGWkM6ZcZf-37" value="" style="endArrow=none;html=1;" parent="LMLSj2MRwrwGWkM6ZcZf-53" edge="1">
          <mxGeometry width="50" height="50" relative="1" as="geometry">
            <mxPoint x="150" y="120" as="sourcePoint" />
            <mxPoint x="90" y="28.039999999999964" as="targetPoint" />
          </mxGeometry>
        </mxCell>
        <mxCell id="LMLSj2MRwrwGWkM6ZcZf-38" value="" style="endArrow=none;html=1;" parent="LMLSj2MRwrwGWkM6ZcZf-53" edge="1">
          <mxGeometry width="50" height="50" relative="1" as="geometry">
            <mxPoint x="210" y="120" as="sourcePoint" />
            <mxPoint x="150" y="28.039999999999964" as="targetPoint" />
          </mxGeometry>
        </mxCell>
        <mxCell id="LMLSj2MRwrwGWkM6ZcZf-39" value="" style="endArrow=none;html=1;" parent="LMLSj2MRwrwGWkM6ZcZf-53" edge="1">
          <mxGeometry width="50" height="50" relative="1" as="geometry">
            <mxPoint x="30" y="120" as="sourcePoint" />
            <mxPoint x="90" y="30" as="targetPoint" />
          </mxGeometry>
        </mxCell>
        <mxCell id="LMLSj2MRwrwGWkM6ZcZf-40" value="" style="endArrow=none;html=1;" parent="LMLSj2MRwrwGWkM6ZcZf-53" edge="1">
          <mxGeometry width="50" height="50" relative="1" as="geometry">
            <mxPoint x="90" y="118.03999999999999" as="sourcePoint" />
            <mxPoint x="150" y="28.04000000000002" as="targetPoint" />
          </mxGeometry>
        </mxCell>
        <mxCell id="LMLSj2MRwrwGWkM6ZcZf-41" value="" style="endArrow=none;html=1;" parent="LMLSj2MRwrwGWkM6ZcZf-53" edge="1">
          <mxGeometry width="50" height="50" relative="1" as="geometry">
            <mxPoint x="150" y="118.03999999999996" as="sourcePoint" />
            <mxPoint x="210" y="28.039999999999964" as="targetPoint" />
          </mxGeometry>
        </mxCell>
        <mxCell id="LMLSj2MRwrwGWkM6ZcZf-42" value="" style="endArrow=none;html=1;exitX=0.5;exitY=0;exitDx=0;exitDy=0;exitPerimeter=0;" parent="LMLSj2MRwrwGWkM6ZcZf-53" source="LMLSj2MRwrwGWkM6ZcZf-25" edge="1">
          <mxGeometry width="50" height="50" relative="1" as="geometry">
            <mxPoint x="-20" y="78.04000000000002" as="sourcePoint" />
            <mxPoint x="30" y="28.04000000000002" as="targetPoint" />
          </mxGeometry>
        </mxCell>
        <mxCell id="LMLSj2MRwrwGWkM6ZcZf-43" value="" style="endArrow=none;html=1;exitX=0.5;exitY=0;exitDx=0;exitDy=0;exitPerimeter=0;" parent="LMLSj2MRwrwGWkM6ZcZf-53" edge="1">
          <mxGeometry width="50" height="50" relative="1" as="geometry">
            <mxPoint x="210" y="120" as="sourcePoint" />
            <mxPoint x="90" y="28.039999999999964" as="targetPoint" />
          </mxGeometry>
        </mxCell>
        <mxCell id="LMLSj2MRwrwGWkM6ZcZf-44" value="" style="endArrow=none;html=1;" parent="LMLSj2MRwrwGWkM6ZcZf-53" edge="1">
          <mxGeometry width="50" height="50" relative="1" as="geometry">
            <mxPoint x="30" y="120" as="sourcePoint" />
            <mxPoint x="150" y="30" as="targetPoint" />
          </mxGeometry>
        </mxCell>
        <mxCell id="LMLSj2MRwrwGWkM6ZcZf-45" value="" style="endArrow=none;html=1;" parent="LMLSj2MRwrwGWkM6ZcZf-53" edge="1">
          <mxGeometry width="50" height="50" relative="1" as="geometry">
            <mxPoint x="90" y="120" as="sourcePoint" />
            <mxPoint x="210" y="30" as="targetPoint" />
          </mxGeometry>
        </mxCell>
        <mxCell id="LMLSj2MRwrwGWkM6ZcZf-46" value="" style="endArrow=none;html=1;" parent="LMLSj2MRwrwGWkM6ZcZf-53" edge="1">
          <mxGeometry width="50" height="50" relative="1" as="geometry">
            <mxPoint x="210" y="120" as="sourcePoint" />
            <mxPoint x="30" y="28.04000000000002" as="targetPoint" />
          </mxGeometry>
        </mxCell>
        <mxCell id="LMLSj2MRwrwGWkM6ZcZf-47" value="" style="endArrow=none;html=1;" parent="LMLSj2MRwrwGWkM6ZcZf-53" edge="1">
          <mxGeometry width="50" height="50" relative="1" as="geometry">
            <mxPoint x="30" y="120" as="sourcePoint" />
            <mxPoint x="210" y="28.04000000000002" as="targetPoint" />
          </mxGeometry>
        </mxCell>
        <mxCell id="LMLSj2MRwrwGWkM6ZcZf-48" value="" style="shape=link;html=1;exitX=0.5;exitY=0;exitDx=0;exitDy=0;exitPerimeter=0;" parent="LMLSj2MRwrwGWkM6ZcZf-53" source="LMLSj2MRwrwGWkM6ZcZf-7" edge="1">
          <mxGeometry width="50" height="50" relative="1" as="geometry">
            <mxPoint x="-20" y="188.04000000000002" as="sourcePoint" />
            <mxPoint x="30" y="138.04000000000002" as="targetPoint" />
          </mxGeometry>
        </mxCell>
        <mxCell id="LMLSj2MRwrwGWkM6ZcZf-49" value="" style="shape=link;html=1;exitX=0.5;exitY=0;exitDx=0;exitDy=0;exitPerimeter=0;" parent="LMLSj2MRwrwGWkM6ZcZf-53" edge="1">
          <mxGeometry width="50" height="50" relative="1" as="geometry">
            <mxPoint x="89.58" y="180" as="sourcePoint" />
            <mxPoint x="89.58" y="138.03999999999996" as="targetPoint" />
          </mxGeometry>
        </mxCell>
        <mxCell id="LMLSj2MRwrwGWkM6ZcZf-50" value="" style="shape=link;html=1;exitX=0.5;exitY=0;exitDx=0;exitDy=0;exitPerimeter=0;" parent="LMLSj2MRwrwGWkM6ZcZf-53" edge="1">
          <mxGeometry width="50" height="50" relative="1" as="geometry">
            <mxPoint x="149.58000000000004" y="178" as="sourcePoint" />
            <mxPoint x="149.58000000000004" y="136.03999999999996" as="targetPoint" />
          </mxGeometry>
        </mxCell>
        <mxCell id="LMLSj2MRwrwGWkM6ZcZf-51" value="" style="shape=link;html=1;exitX=0.5;exitY=0;exitDx=0;exitDy=0;exitPerimeter=0;" parent="LMLSj2MRwrwGWkM6ZcZf-53" edge="1">
          <mxGeometry width="50" height="50" relative="1" as="geometry">
            <mxPoint x="209.58000000000004" y="178" as="sourcePoint" />
            <mxPoint x="209.58000000000004" y="136.03999999999996" as="targetPoint" />
          </mxGeometry>
        </mxCell>
        <mxCell id="rLoegdF59TgYcEcmEnVo-1" value="" style="group" parent="2GTVWRp6U-cZcLKtKoB1-3" vertex="1" connectable="0" treatAsSingle="0">
          <mxGeometry x="385" y="140" width="240" height="260" as="geometry" />
        </mxCell>
        <mxCell id="rLoegdF59TgYcEcmEnVo-2" value="" style="rounded=0;whiteSpace=wrap;html=1;dashed=1;shadow=0;glass=0;" parent="rLoegdF59TgYcEcmEnVo-1" vertex="1">
          <mxGeometry width="240" height="260" as="geometry" />
        </mxCell>
        <mxCell id="rLoegdF59TgYcEcmEnVo-3" value="" style="verticalLabelPosition=bottom;aspect=fixed;html=1;verticalAlign=top;strokeColor=none;align=center;outlineConnect=0;shape=mxgraph.citrix.switch;" parent="rLoegdF59TgYcEcmEnVo-1" vertex="1">
          <mxGeometry x="10" y="120" width="40" height="18.04" as="geometry" />
        </mxCell>
        <mxCell id="rLoegdF59TgYcEcmEnVo-4" value="" style="fontColor=#0066CC;verticalAlign=top;verticalLabelPosition=bottom;labelPosition=center;align=center;html=1;outlineConnect=0;fillColor=#CCCCCC;strokeColor=#6881B3;gradientDirection=north;strokeWidth=2;shape=mxgraph.networks.server;" parent="rLoegdF59TgYcEcmEnVo-1" vertex="1">
          <mxGeometry x="10" y="180" width="40" height="70" as="geometry" />
        </mxCell>
        <mxCell id="rLoegdF59TgYcEcmEnVo-5" value="" style="fontColor=#0066CC;verticalAlign=top;verticalLabelPosition=bottom;labelPosition=center;align=center;html=1;outlineConnect=0;fillColor=#CCCCCC;strokeColor=#6881B3;gradientDirection=north;strokeWidth=2;shape=mxgraph.networks.server;" parent="rLoegdF59TgYcEcmEnVo-1" vertex="1">
          <mxGeometry x="70" y="180" width="40" height="70" as="geometry" />
        </mxCell>
        <mxCell id="rLoegdF59TgYcEcmEnVo-6" value="" style="fontColor=#0066CC;verticalAlign=top;verticalLabelPosition=bottom;labelPosition=center;align=center;html=1;outlineConnect=0;fillColor=#CCCCCC;strokeColor=#6881B3;gradientDirection=north;strokeWidth=2;shape=mxgraph.networks.server;" parent="rLoegdF59TgYcEcmEnVo-1" vertex="1">
          <mxGeometry x="130" y="180" width="40" height="70" as="geometry" />
        </mxCell>
        <mxCell id="rLoegdF59TgYcEcmEnVo-7" value="" style="fontColor=#0066CC;verticalAlign=top;verticalLabelPosition=bottom;labelPosition=center;align=center;html=1;outlineConnect=0;fillColor=#CCCCCC;strokeColor=#6881B3;gradientDirection=north;strokeWidth=2;shape=mxgraph.networks.server;" parent="rLoegdF59TgYcEcmEnVo-1" vertex="1">
          <mxGeometry x="190" y="179" width="40" height="70" as="geometry" />
        </mxCell>
        <mxCell id="rLoegdF59TgYcEcmEnVo-8" value="" style="verticalLabelPosition=bottom;aspect=fixed;html=1;verticalAlign=top;strokeColor=none;align=center;outlineConnect=0;shape=mxgraph.citrix.switch;" parent="rLoegdF59TgYcEcmEnVo-1" vertex="1">
          <mxGeometry x="70" y="120" width="40" height="18.04" as="geometry" />
        </mxCell>
        <mxCell id="rLoegdF59TgYcEcmEnVo-9" value="" style="verticalLabelPosition=bottom;aspect=fixed;html=1;verticalAlign=top;strokeColor=none;align=center;outlineConnect=0;shape=mxgraph.citrix.switch;" parent="rLoegdF59TgYcEcmEnVo-1" vertex="1">
          <mxGeometry x="130" y="120" width="40" height="18.04" as="geometry" />
        </mxCell>
        <mxCell id="rLoegdF59TgYcEcmEnVo-10" value="" style="verticalLabelPosition=bottom;aspect=fixed;html=1;verticalAlign=top;strokeColor=none;align=center;outlineConnect=0;shape=mxgraph.citrix.switch;" parent="rLoegdF59TgYcEcmEnVo-1" vertex="1">
          <mxGeometry x="190" y="120" width="40" height="18.04" as="geometry" />
        </mxCell>
        <mxCell id="rLoegdF59TgYcEcmEnVo-11" value="" style="verticalLabelPosition=bottom;aspect=fixed;html=1;verticalAlign=top;strokeColor=none;align=center;outlineConnect=0;shape=mxgraph.citrix.switch;" parent="rLoegdF59TgYcEcmEnVo-1" vertex="1">
          <mxGeometry x="10" y="10" width="40" height="18.04" as="geometry" />
        </mxCell>
        <mxCell id="rLoegdF59TgYcEcmEnVo-12" value="" style="verticalLabelPosition=bottom;aspect=fixed;html=1;verticalAlign=top;strokeColor=none;align=center;outlineConnect=0;shape=mxgraph.citrix.switch;" parent="rLoegdF59TgYcEcmEnVo-1" vertex="1">
          <mxGeometry x="70" y="10" width="40" height="18.04" as="geometry" />
        </mxCell>
        <mxCell id="rLoegdF59TgYcEcmEnVo-13" value="" style="verticalLabelPosition=bottom;aspect=fixed;html=1;verticalAlign=top;strokeColor=none;align=center;outlineConnect=0;shape=mxgraph.citrix.switch;" parent="rLoegdF59TgYcEcmEnVo-1" vertex="1">
          <mxGeometry x="130" y="10" width="40" height="18.04" as="geometry" />
        </mxCell>
        <mxCell id="rLoegdF59TgYcEcmEnVo-14" value="" style="verticalLabelPosition=bottom;aspect=fixed;html=1;verticalAlign=top;strokeColor=none;align=center;outlineConnect=0;shape=mxgraph.citrix.switch;" parent="rLoegdF59TgYcEcmEnVo-1" vertex="1">
          <mxGeometry x="190" y="10" width="40" height="18.04" as="geometry" />
        </mxCell>
        <mxCell id="rLoegdF59TgYcEcmEnVo-15" value="" style="endArrow=none;html=1;" parent="rLoegdF59TgYcEcmEnVo-1" source="rLoegdF59TgYcEcmEnVo-3" edge="1">
          <mxGeometry width="50" height="50" relative="1" as="geometry">
            <mxPoint x="-20" y="78.04000000000002" as="sourcePoint" />
            <mxPoint x="30" y="28.04000000000002" as="targetPoint" />
          </mxGeometry>
        </mxCell>
        <mxCell id="rLoegdF59TgYcEcmEnVo-16" value="" style="endArrow=none;html=1;" parent="rLoegdF59TgYcEcmEnVo-1" edge="1">
          <mxGeometry width="50" height="50" relative="1" as="geometry">
            <mxPoint x="89.58" y="120" as="sourcePoint" />
            <mxPoint x="89.58" y="28.039999999999964" as="targetPoint" />
          </mxGeometry>
        </mxCell>
        <mxCell id="rLoegdF59TgYcEcmEnVo-17" value="" style="endArrow=none;html=1;" parent="rLoegdF59TgYcEcmEnVo-1" edge="1">
          <mxGeometry width="50" height="50" relative="1" as="geometry">
            <mxPoint x="149.58000000000004" y="120" as="sourcePoint" />
            <mxPoint x="149.58000000000004" y="28.039999999999964" as="targetPoint" />
          </mxGeometry>
        </mxCell>
        <mxCell id="rLoegdF59TgYcEcmEnVo-18" value="" style="endArrow=none;html=1;" parent="rLoegdF59TgYcEcmEnVo-1" edge="1">
          <mxGeometry width="50" height="50" relative="1" as="geometry">
            <mxPoint x="209.58000000000004" y="120" as="sourcePoint" />
            <mxPoint x="209.58000000000004" y="28.039999999999964" as="targetPoint" />
          </mxGeometry>
        </mxCell>
        <mxCell id="rLoegdF59TgYcEcmEnVo-19" value="" style="endArrow=none;html=1;" parent="rLoegdF59TgYcEcmEnVo-1" edge="1">
          <mxGeometry width="50" height="50" relative="1" as="geometry">
            <mxPoint x="90" y="120" as="sourcePoint" />
            <mxPoint x="30" y="28.04000000000002" as="targetPoint" />
          </mxGeometry>
        </mxCell>
        <mxCell id="rLoegdF59TgYcEcmEnVo-20" value="" style="endArrow=none;html=1;" parent="rLoegdF59TgYcEcmEnVo-1" edge="1">
          <mxGeometry width="50" height="50" relative="1" as="geometry">
            <mxPoint x="150" y="120" as="sourcePoint" />
            <mxPoint x="90" y="28.039999999999964" as="targetPoint" />
          </mxGeometry>
        </mxCell>
        <mxCell id="rLoegdF59TgYcEcmEnVo-21" value="" style="endArrow=none;html=1;" parent="rLoegdF59TgYcEcmEnVo-1" edge="1">
          <mxGeometry width="50" height="50" relative="1" as="geometry">
            <mxPoint x="210" y="120" as="sourcePoint" />
            <mxPoint x="150" y="28.039999999999964" as="targetPoint" />
          </mxGeometry>
        </mxCell>
        <mxCell id="rLoegdF59TgYcEcmEnVo-22" value="" style="endArrow=none;html=1;" parent="rLoegdF59TgYcEcmEnVo-1" edge="1">
          <mxGeometry width="50" height="50" relative="1" as="geometry">
            <mxPoint x="30" y="120" as="sourcePoint" />
            <mxPoint x="90" y="30" as="targetPoint" />
          </mxGeometry>
        </mxCell>
        <mxCell id="rLoegdF59TgYcEcmEnVo-23" value="" style="endArrow=none;html=1;" parent="rLoegdF59TgYcEcmEnVo-1" edge="1">
          <mxGeometry width="50" height="50" relative="1" as="geometry">
            <mxPoint x="90" y="118.03999999999999" as="sourcePoint" />
            <mxPoint x="150" y="28.04000000000002" as="targetPoint" />
          </mxGeometry>
        </mxCell>
        <mxCell id="rLoegdF59TgYcEcmEnVo-24" value="" style="endArrow=none;html=1;" parent="rLoegdF59TgYcEcmEnVo-1" edge="1">
          <mxGeometry width="50" height="50" relative="1" as="geometry">
            <mxPoint x="150" y="118.03999999999996" as="sourcePoint" />
            <mxPoint x="210" y="28.039999999999964" as="targetPoint" />
          </mxGeometry>
        </mxCell>
        <mxCell id="rLoegdF59TgYcEcmEnVo-25" value="" style="endArrow=none;html=1;exitX=0.5;exitY=0;exitDx=0;exitDy=0;exitPerimeter=0;" parent="rLoegdF59TgYcEcmEnVo-1" source="rLoegdF59TgYcEcmEnVo-9" edge="1">
          <mxGeometry width="50" height="50" relative="1" as="geometry">
            <mxPoint x="-20" y="78.04000000000002" as="sourcePoint" />
            <mxPoint x="30" y="28.04000000000002" as="targetPoint" />
          </mxGeometry>
        </mxCell>
        <mxCell id="rLoegdF59TgYcEcmEnVo-26" value="" style="endArrow=none;html=1;exitX=0.5;exitY=0;exitDx=0;exitDy=0;exitPerimeter=0;" parent="rLoegdF59TgYcEcmEnVo-1" edge="1">
          <mxGeometry width="50" height="50" relative="1" as="geometry">
            <mxPoint x="210" y="120" as="sourcePoint" />
            <mxPoint x="90" y="28.039999999999964" as="targetPoint" />
          </mxGeometry>
        </mxCell>
        <mxCell id="rLoegdF59TgYcEcmEnVo-27" value="" style="endArrow=none;html=1;" parent="rLoegdF59TgYcEcmEnVo-1" edge="1">
          <mxGeometry width="50" height="50" relative="1" as="geometry">
            <mxPoint x="30" y="120" as="sourcePoint" />
            <mxPoint x="150" y="30" as="targetPoint" />
          </mxGeometry>
        </mxCell>
        <mxCell id="rLoegdF59TgYcEcmEnVo-28" value="" style="endArrow=none;html=1;" parent="rLoegdF59TgYcEcmEnVo-1" edge="1">
          <mxGeometry width="50" height="50" relative="1" as="geometry">
            <mxPoint x="90" y="120" as="sourcePoint" />
            <mxPoint x="210" y="30" as="targetPoint" />
          </mxGeometry>
        </mxCell>
        <mxCell id="rLoegdF59TgYcEcmEnVo-29" value="" style="endArrow=none;html=1;" parent="rLoegdF59TgYcEcmEnVo-1" edge="1">
          <mxGeometry width="50" height="50" relative="1" as="geometry">
            <mxPoint x="210" y="120" as="sourcePoint" />
            <mxPoint x="30" y="28.04000000000002" as="targetPoint" />
          </mxGeometry>
        </mxCell>
        <mxCell id="rLoegdF59TgYcEcmEnVo-30" value="" style="endArrow=none;html=1;" parent="rLoegdF59TgYcEcmEnVo-1" edge="1">
          <mxGeometry width="50" height="50" relative="1" as="geometry">
            <mxPoint x="30" y="120" as="sourcePoint" />
            <mxPoint x="210" y="28.04000000000002" as="targetPoint" />
          </mxGeometry>
        </mxCell>
        <mxCell id="rLoegdF59TgYcEcmEnVo-31" value="" style="shape=link;html=1;exitX=0.5;exitY=0;exitDx=0;exitDy=0;exitPerimeter=0;" parent="rLoegdF59TgYcEcmEnVo-1" source="rLoegdF59TgYcEcmEnVo-4" edge="1">
          <mxGeometry width="50" height="50" relative="1" as="geometry">
            <mxPoint x="-20" y="188.04000000000002" as="sourcePoint" />
            <mxPoint x="30" y="138.04000000000002" as="targetPoint" />
          </mxGeometry>
        </mxCell>
        <mxCell id="rLoegdF59TgYcEcmEnVo-32" value="" style="shape=link;html=1;exitX=0.5;exitY=0;exitDx=0;exitDy=0;exitPerimeter=0;" parent="rLoegdF59TgYcEcmEnVo-1" edge="1">
          <mxGeometry width="50" height="50" relative="1" as="geometry">
            <mxPoint x="89.58" y="180" as="sourcePoint" />
            <mxPoint x="89.58" y="138.03999999999996" as="targetPoint" />
          </mxGeometry>
        </mxCell>
        <mxCell id="rLoegdF59TgYcEcmEnVo-33" value="" style="shape=link;html=1;exitX=0.5;exitY=0;exitDx=0;exitDy=0;exitPerimeter=0;" parent="rLoegdF59TgYcEcmEnVo-1" edge="1">
          <mxGeometry width="50" height="50" relative="1" as="geometry">
            <mxPoint x="149.58000000000004" y="178" as="sourcePoint" />
            <mxPoint x="149.58000000000004" y="136.03999999999996" as="targetPoint" />
          </mxGeometry>
        </mxCell>
        <mxCell id="rLoegdF59TgYcEcmEnVo-34" value="" style="shape=link;html=1;exitX=0.5;exitY=0;exitDx=0;exitDy=0;exitPerimeter=0;" parent="rLoegdF59TgYcEcmEnVo-1" edge="1">
          <mxGeometry width="50" height="50" relative="1" as="geometry">
            <mxPoint x="209.58000000000004" y="178" as="sourcePoint" />
            <mxPoint x="209.58000000000004" y="136.03999999999996" as="targetPoint" />
          </mxGeometry>
        </mxCell>
        <mxCell id="rLoegdF59TgYcEcmEnVo-35" value="" style="group" parent="2GTVWRp6U-cZcLKtKoB1-3" vertex="1" connectable="0" treatAsSingle="0">
          <mxGeometry x="675" y="140" width="240" height="260" as="geometry" />
        </mxCell>
        <mxCell id="rLoegdF59TgYcEcmEnVo-36" value="" style="rounded=0;whiteSpace=wrap;html=1;dashed=1;shadow=0;glass=0;" parent="rLoegdF59TgYcEcmEnVo-35" vertex="1">
          <mxGeometry width="240" height="260" as="geometry" />
        </mxCell>
        <mxCell id="rLoegdF59TgYcEcmEnVo-37" value="" style="verticalLabelPosition=bottom;aspect=fixed;html=1;verticalAlign=top;strokeColor=none;align=center;outlineConnect=0;shape=mxgraph.citrix.switch;" parent="rLoegdF59TgYcEcmEnVo-35" vertex="1">
          <mxGeometry x="10" y="120" width="40" height="18.04" as="geometry" />
        </mxCell>
        <mxCell id="rLoegdF59TgYcEcmEnVo-38" value="" style="fontColor=#0066CC;verticalAlign=top;verticalLabelPosition=bottom;labelPosition=center;align=center;html=1;outlineConnect=0;fillColor=#CCCCCC;strokeColor=#6881B3;gradientDirection=north;strokeWidth=2;shape=mxgraph.networks.server;" parent="rLoegdF59TgYcEcmEnVo-35" vertex="1">
          <mxGeometry x="10" y="180" width="40" height="70" as="geometry" />
        </mxCell>
        <mxCell id="rLoegdF59TgYcEcmEnVo-39" value="" style="fontColor=#0066CC;verticalAlign=top;verticalLabelPosition=bottom;labelPosition=center;align=center;html=1;outlineConnect=0;fillColor=#CCCCCC;strokeColor=#6881B3;gradientDirection=north;strokeWidth=2;shape=mxgraph.networks.server;" parent="rLoegdF59TgYcEcmEnVo-35" vertex="1">
          <mxGeometry x="70" y="180" width="40" height="70" as="geometry" />
        </mxCell>
        <mxCell id="rLoegdF59TgYcEcmEnVo-40" value="" style="fontColor=#0066CC;verticalAlign=top;verticalLabelPosition=bottom;labelPosition=center;align=center;html=1;outlineConnect=0;fillColor=#CCCCCC;strokeColor=#6881B3;gradientDirection=north;strokeWidth=2;shape=mxgraph.networks.server;" parent="rLoegdF59TgYcEcmEnVo-35" vertex="1">
          <mxGeometry x="130" y="180" width="40" height="70" as="geometry" />
        </mxCell>
        <mxCell id="rLoegdF59TgYcEcmEnVo-41" value="" style="fontColor=#0066CC;verticalAlign=top;verticalLabelPosition=bottom;labelPosition=center;align=center;html=1;outlineConnect=0;fillColor=#CCCCCC;strokeColor=#6881B3;gradientDirection=north;strokeWidth=2;shape=mxgraph.networks.server;" parent="rLoegdF59TgYcEcmEnVo-35" vertex="1">
          <mxGeometry x="190" y="179" width="40" height="70" as="geometry" />
        </mxCell>
        <mxCell id="rLoegdF59TgYcEcmEnVo-42" value="" style="verticalLabelPosition=bottom;aspect=fixed;html=1;verticalAlign=top;strokeColor=none;align=center;outlineConnect=0;shape=mxgraph.citrix.switch;" parent="rLoegdF59TgYcEcmEnVo-35" vertex="1">
          <mxGeometry x="70" y="120" width="40" height="18.04" as="geometry" />
        </mxCell>
        <mxCell id="rLoegdF59TgYcEcmEnVo-43" value="" style="verticalLabelPosition=bottom;aspect=fixed;html=1;verticalAlign=top;strokeColor=none;align=center;outlineConnect=0;shape=mxgraph.citrix.switch;" parent="rLoegdF59TgYcEcmEnVo-35" vertex="1">
          <mxGeometry x="130" y="120" width="40" height="18.04" as="geometry" />
        </mxCell>
        <mxCell id="rLoegdF59TgYcEcmEnVo-44" value="" style="verticalLabelPosition=bottom;aspect=fixed;html=1;verticalAlign=top;strokeColor=none;align=center;outlineConnect=0;shape=mxgraph.citrix.switch;" parent="rLoegdF59TgYcEcmEnVo-35" vertex="1">
          <mxGeometry x="190" y="120" width="40" height="18.04" as="geometry" />
        </mxCell>
        <mxCell id="rLoegdF59TgYcEcmEnVo-45" value="" style="verticalLabelPosition=bottom;aspect=fixed;html=1;verticalAlign=top;strokeColor=none;align=center;outlineConnect=0;shape=mxgraph.citrix.switch;" parent="rLoegdF59TgYcEcmEnVo-35" vertex="1">
          <mxGeometry x="10" y="10" width="40" height="18.04" as="geometry" />
        </mxCell>
        <mxCell id="rLoegdF59TgYcEcmEnVo-46" value="" style="verticalLabelPosition=bottom;aspect=fixed;html=1;verticalAlign=top;strokeColor=none;align=center;outlineConnect=0;shape=mxgraph.citrix.switch;" parent="rLoegdF59TgYcEcmEnVo-35" vertex="1">
          <mxGeometry x="70" y="10" width="40" height="18.04" as="geometry" />
        </mxCell>
        <mxCell id="rLoegdF59TgYcEcmEnVo-47" value="" style="verticalLabelPosition=bottom;aspect=fixed;html=1;verticalAlign=top;strokeColor=none;align=center;outlineConnect=0;shape=mxgraph.citrix.switch;" parent="rLoegdF59TgYcEcmEnVo-35" vertex="1">
          <mxGeometry x="130" y="10" width="40" height="18.04" as="geometry" />
        </mxCell>
        <mxCell id="rLoegdF59TgYcEcmEnVo-48" value="" style="verticalLabelPosition=bottom;aspect=fixed;html=1;verticalAlign=top;strokeColor=none;align=center;outlineConnect=0;shape=mxgraph.citrix.switch;" parent="rLoegdF59TgYcEcmEnVo-35" vertex="1">
          <mxGeometry x="190" y="10" width="40" height="18.04" as="geometry" />
        </mxCell>
        <mxCell id="rLoegdF59TgYcEcmEnVo-49" value="" style="endArrow=none;html=1;" parent="rLoegdF59TgYcEcmEnVo-35" source="rLoegdF59TgYcEcmEnVo-37" edge="1">
          <mxGeometry width="50" height="50" relative="1" as="geometry">
            <mxPoint x="-20" y="78.04000000000002" as="sourcePoint" />
            <mxPoint x="30" y="28.04000000000002" as="targetPoint" />
          </mxGeometry>
        </mxCell>
        <mxCell id="rLoegdF59TgYcEcmEnVo-50" value="" style="endArrow=none;html=1;" parent="rLoegdF59TgYcEcmEnVo-35" edge="1">
          <mxGeometry width="50" height="50" relative="1" as="geometry">
            <mxPoint x="89.58" y="120" as="sourcePoint" />
            <mxPoint x="89.58" y="28.039999999999964" as="targetPoint" />
          </mxGeometry>
        </mxCell>
        <mxCell id="rLoegdF59TgYcEcmEnVo-51" value="" style="endArrow=none;html=1;" parent="rLoegdF59TgYcEcmEnVo-35" edge="1">
          <mxGeometry width="50" height="50" relative="1" as="geometry">
            <mxPoint x="149.58000000000004" y="120" as="sourcePoint" />
            <mxPoint x="149.58000000000004" y="28.039999999999964" as="targetPoint" />
          </mxGeometry>
        </mxCell>
        <mxCell id="rLoegdF59TgYcEcmEnVo-52" value="" style="endArrow=none;html=1;" parent="rLoegdF59TgYcEcmEnVo-35" edge="1">
          <mxGeometry width="50" height="50" relative="1" as="geometry">
            <mxPoint x="209.58000000000004" y="120" as="sourcePoint" />
            <mxPoint x="209.58000000000004" y="28.039999999999964" as="targetPoint" />
          </mxGeometry>
        </mxCell>
        <mxCell id="rLoegdF59TgYcEcmEnVo-53" value="" style="endArrow=none;html=1;" parent="rLoegdF59TgYcEcmEnVo-35" edge="1">
          <mxGeometry width="50" height="50" relative="1" as="geometry">
            <mxPoint x="90" y="120" as="sourcePoint" />
            <mxPoint x="30" y="28.04000000000002" as="targetPoint" />
          </mxGeometry>
        </mxCell>
        <mxCell id="rLoegdF59TgYcEcmEnVo-54" value="" style="endArrow=none;html=1;" parent="rLoegdF59TgYcEcmEnVo-35" edge="1">
          <mxGeometry width="50" height="50" relative="1" as="geometry">
            <mxPoint x="150" y="120" as="sourcePoint" />
            <mxPoint x="90" y="28.039999999999964" as="targetPoint" />
          </mxGeometry>
        </mxCell>
        <mxCell id="rLoegdF59TgYcEcmEnVo-55" value="" style="endArrow=none;html=1;" parent="rLoegdF59TgYcEcmEnVo-35" edge="1">
          <mxGeometry width="50" height="50" relative="1" as="geometry">
            <mxPoint x="210" y="120" as="sourcePoint" />
            <mxPoint x="150" y="28.039999999999964" as="targetPoint" />
          </mxGeometry>
        </mxCell>
        <mxCell id="rLoegdF59TgYcEcmEnVo-56" value="" style="endArrow=none;html=1;" parent="rLoegdF59TgYcEcmEnVo-35" edge="1">
          <mxGeometry width="50" height="50" relative="1" as="geometry">
            <mxPoint x="30" y="120" as="sourcePoint" />
            <mxPoint x="90" y="30" as="targetPoint" />
          </mxGeometry>
        </mxCell>
        <mxCell id="rLoegdF59TgYcEcmEnVo-57" value="" style="endArrow=none;html=1;" parent="rLoegdF59TgYcEcmEnVo-35" edge="1">
          <mxGeometry width="50" height="50" relative="1" as="geometry">
            <mxPoint x="90" y="118.03999999999999" as="sourcePoint" />
            <mxPoint x="150" y="28.04000000000002" as="targetPoint" />
          </mxGeometry>
        </mxCell>
        <mxCell id="rLoegdF59TgYcEcmEnVo-58" value="" style="endArrow=none;html=1;" parent="rLoegdF59TgYcEcmEnVo-35" edge="1">
          <mxGeometry width="50" height="50" relative="1" as="geometry">
            <mxPoint x="150" y="118.03999999999996" as="sourcePoint" />
            <mxPoint x="210" y="28.039999999999964" as="targetPoint" />
          </mxGeometry>
        </mxCell>
        <mxCell id="rLoegdF59TgYcEcmEnVo-59" value="" style="endArrow=none;html=1;exitX=0.5;exitY=0;exitDx=0;exitDy=0;exitPerimeter=0;" parent="rLoegdF59TgYcEcmEnVo-35" source="rLoegdF59TgYcEcmEnVo-43" edge="1">
          <mxGeometry width="50" height="50" relative="1" as="geometry">
            <mxPoint x="-20" y="78.04000000000002" as="sourcePoint" />
            <mxPoint x="30" y="28.04000000000002" as="targetPoint" />
          </mxGeometry>
        </mxCell>
        <mxCell id="rLoegdF59TgYcEcmEnVo-60" value="" style="endArrow=none;html=1;exitX=0.5;exitY=0;exitDx=0;exitDy=0;exitPerimeter=0;" parent="rLoegdF59TgYcEcmEnVo-35" edge="1">
          <mxGeometry width="50" height="50" relative="1" as="geometry">
            <mxPoint x="210" y="120" as="sourcePoint" />
            <mxPoint x="90" y="28.039999999999964" as="targetPoint" />
          </mxGeometry>
        </mxCell>
        <mxCell id="rLoegdF59TgYcEcmEnVo-61" value="" style="endArrow=none;html=1;" parent="rLoegdF59TgYcEcmEnVo-35" edge="1">
          <mxGeometry width="50" height="50" relative="1" as="geometry">
            <mxPoint x="30" y="120" as="sourcePoint" />
            <mxPoint x="150" y="30" as="targetPoint" />
          </mxGeometry>
        </mxCell>
        <mxCell id="rLoegdF59TgYcEcmEnVo-62" value="" style="endArrow=none;html=1;" parent="rLoegdF59TgYcEcmEnVo-35" edge="1">
          <mxGeometry width="50" height="50" relative="1" as="geometry">
            <mxPoint x="90" y="120" as="sourcePoint" />
            <mxPoint x="210" y="30" as="targetPoint" />
          </mxGeometry>
        </mxCell>
        <mxCell id="rLoegdF59TgYcEcmEnVo-63" value="" style="endArrow=none;html=1;" parent="rLoegdF59TgYcEcmEnVo-35" edge="1">
          <mxGeometry width="50" height="50" relative="1" as="geometry">
            <mxPoint x="210" y="120" as="sourcePoint" />
            <mxPoint x="30" y="28.04000000000002" as="targetPoint" />
          </mxGeometry>
        </mxCell>
        <mxCell id="rLoegdF59TgYcEcmEnVo-64" value="" style="endArrow=none;html=1;" parent="rLoegdF59TgYcEcmEnVo-35" edge="1">
          <mxGeometry width="50" height="50" relative="1" as="geometry">
            <mxPoint x="30" y="120" as="sourcePoint" />
            <mxPoint x="210" y="28.04000000000002" as="targetPoint" />
          </mxGeometry>
        </mxCell>
        <mxCell id="rLoegdF59TgYcEcmEnVo-65" value="" style="shape=link;html=1;exitX=0.5;exitY=0;exitDx=0;exitDy=0;exitPerimeter=0;" parent="rLoegdF59TgYcEcmEnVo-35" source="rLoegdF59TgYcEcmEnVo-38" edge="1">
          <mxGeometry width="50" height="50" relative="1" as="geometry">
            <mxPoint x="-20" y="188.04000000000002" as="sourcePoint" />
            <mxPoint x="30" y="138.04000000000002" as="targetPoint" />
          </mxGeometry>
        </mxCell>
        <mxCell id="rLoegdF59TgYcEcmEnVo-66" value="" style="shape=link;html=1;exitX=0.5;exitY=0;exitDx=0;exitDy=0;exitPerimeter=0;" parent="rLoegdF59TgYcEcmEnVo-35" edge="1">
          <mxGeometry width="50" height="50" relative="1" as="geometry">
            <mxPoint x="89.58" y="180" as="sourcePoint" />
            <mxPoint x="89.58" y="138.03999999999996" as="targetPoint" />
          </mxGeometry>
        </mxCell>
        <mxCell id="rLoegdF59TgYcEcmEnVo-67" value="" style="shape=link;html=1;exitX=0.5;exitY=0;exitDx=0;exitDy=0;exitPerimeter=0;" parent="rLoegdF59TgYcEcmEnVo-35" edge="1">
          <mxGeometry width="50" height="50" relative="1" as="geometry">
            <mxPoint x="149.58000000000004" y="178" as="sourcePoint" />
            <mxPoint x="149.58000000000004" y="136.03999999999996" as="targetPoint" />
          </mxGeometry>
        </mxCell>
        <mxCell id="rLoegdF59TgYcEcmEnVo-68" value="" style="shape=link;html=1;exitX=0.5;exitY=0;exitDx=0;exitDy=0;exitPerimeter=0;" parent="rLoegdF59TgYcEcmEnVo-35" edge="1">
          <mxGeometry width="50" height="50" relative="1" as="geometry">
            <mxPoint x="209.58000000000004" y="178" as="sourcePoint" />
            <mxPoint x="209.58000000000004" y="136.03999999999996" as="targetPoint" />
          </mxGeometry>
        </mxCell>
        <mxCell id="rLoegdF59TgYcEcmEnVo-70" value="&lt;font style=&quot;font-size: 40px&quot;&gt;…&lt;/font&gt;" style="text;html=1;align=center;verticalAlign=middle;resizable=0;points=[];autosize=1;" parent="2GTVWRp6U-cZcLKtKoB1-3" vertex="1">
          <mxGeometry x="620" y="198" width="60" height="30" as="geometry" />
        </mxCell>
        <mxCell id="rLoegdF59TgYcEcmEnVo-71" value="" style="fontColor=#0066CC;verticalAlign=top;verticalLabelPosition=bottom;labelPosition=center;align=center;html=1;outlineConnect=0;fillColor=#CCCCCC;strokeColor=#6881B3;gradientDirection=north;strokeWidth=2;shape=mxgraph.networks.switch;" parent="2GTVWRp6U-cZcLKtKoB1-3" vertex="1">
          <mxGeometry x="420" y="20" width="170" height="40" as="geometry" />
        </mxCell>
        <mxCell id="rLoegdF59TgYcEcmEnVo-72" value="" style="fontColor=#0066CC;verticalAlign=top;verticalLabelPosition=bottom;labelPosition=center;align=center;html=1;outlineConnect=0;fillColor=#CCCCCC;strokeColor=#6881B3;gradientDirection=north;strokeWidth=2;shape=mxgraph.networks.switch;" parent="2GTVWRp6U-cZcLKtKoB1-3" vertex="1">
          <mxGeometry x="710" y="20" width="170" height="40" as="geometry" />
        </mxCell>
        <mxCell id="rLoegdF59TgYcEcmEnVo-73" value="&lt;font style=&quot;font-size: 40px&quot;&gt;…&lt;/font&gt;" style="text;html=1;align=center;verticalAlign=middle;resizable=0;points=[];autosize=1;" parent="2GTVWRp6U-cZcLKtKoB1-3" vertex="1">
          <mxGeometry x="620" y="25" width="60" height="30" as="geometry" />
        </mxCell>
        <mxCell id="rLoegdF59TgYcEcmEnVo-85" value="&lt;div style=&quot;font-size: 30px&quot;&gt;&lt;font style=&quot;font-size: 30px&quot; face=&quot;Times New Roman&quot;&gt;Core&amp;nbsp;&lt;br&gt;&lt;/font&gt;&lt;/div&gt;&lt;div style=&quot;font-size: 30px&quot;&gt;&lt;font style=&quot;font-size: 30px&quot; face=&quot;Times New Roman&quot;&gt;Layer&lt;/font&gt;&lt;/div&gt;" style="text;html=1;align=center;verticalAlign=middle;resizable=0;points=[];autosize=1;" parent="2GTVWRp6U-cZcLKtKoB1-3" vertex="1">
          <mxGeometry x="16" y="25" width="90" height="30" as="geometry" />
        </mxCell>
        <mxCell id="rLoegdF59TgYcEcmEnVo-86" value="&lt;div style=&quot;font-size: 30px&quot;&gt;&lt;font style=&quot;font-size: 30px&quot; face=&quot;Times New Roman&quot;&gt;Aggr&lt;br&gt;&lt;/font&gt;&lt;/div&gt;&lt;div style=&quot;font-size: 30px&quot;&gt;&lt;font style=&quot;font-size: 30px&quot; face=&quot;Times New Roman&quot;&gt;Layer&lt;/font&gt;&lt;/div&gt;" style="text;html=1;align=center;verticalAlign=middle;resizable=0;points=[];autosize=1;" parent="2GTVWRp6U-cZcLKtKoB1-3" vertex="1">
          <mxGeometry x="16" y="145" width="90" height="30" as="geometry" />
        </mxCell>
        <mxCell id="rLoegdF59TgYcEcmEnVo-87" value="&lt;div style=&quot;font-size: 30px&quot;&gt;&lt;font style=&quot;font-size: 30px&quot; face=&quot;Times New Roman&quot;&gt;ToR &lt;br&gt;&lt;/font&gt;&lt;/div&gt;&lt;div style=&quot;font-size: 30px&quot;&gt;&lt;font style=&quot;font-size: 30px&quot; face=&quot;Times New Roman&quot;&gt;Layer&lt;/font&gt;&lt;/div&gt;" style="text;html=1;align=center;verticalAlign=middle;resizable=0;points=[];autosize=1;" parent="2GTVWRp6U-cZcLKtKoB1-3" vertex="1">
          <mxGeometry x="16" y="255" width="90" height="30" as="geometry" />
        </mxCell>
        <mxCell id="rLoegdF59TgYcEcmEnVo-89" value="&lt;div&gt;&lt;font face=&quot;Times New Roman&quot;&gt;&lt;font style=&quot;font-size: 30px&quot;&gt;Servers &lt;/font&gt;&lt;br&gt;&lt;/font&gt;&lt;/div&gt;" style="text;html=1;align=center;verticalAlign=middle;resizable=0;points=[];autosize=1;" parent="2GTVWRp6U-cZcLKtKoB1-3" vertex="1">
          <mxGeometry y="345" width="110" height="30" as="geometry" />
        </mxCell>
        <mxCell id="rLoegdF59TgYcEcmEnVo-90" value="" style="shape=curlyBracket;whiteSpace=wrap;html=1;rounded=1;direction=north;" parent="2GTVWRp6U-cZcLKtKoB1-3" vertex="1">
          <mxGeometry x="115" y="410" width="240" height="20" as="geometry" />
        </mxCell>
        <mxCell id="rLoegdF59TgYcEcmEnVo-91" value="&lt;div style=&quot;font-size: 30px;&quot;&gt;&lt;font style=&quot;font-size: 30px;&quot; face=&quot;Times New Roman&quot;&gt;PoD 1 &lt;br style=&quot;font-size: 30px;&quot;&gt;&lt;/font&gt;&lt;/div&gt;" style="text;html=1;align=center;verticalAlign=middle;resizable=0;points=[];autosize=1;fontSize=30;" parent="2GTVWRp6U-cZcLKtKoB1-3" vertex="1">
          <mxGeometry x="188" y="415" width="100" height="50" as="geometry" />
        </mxCell>
        <mxCell id="rLoegdF59TgYcEcmEnVo-92" value="" style="shape=curlyBracket;whiteSpace=wrap;html=1;rounded=1;direction=north;" parent="2GTVWRp6U-cZcLKtKoB1-3" vertex="1">
          <mxGeometry x="385" y="410" width="240" height="20" as="geometry" />
        </mxCell>
        <mxCell id="rLoegdF59TgYcEcmEnVo-93" value="&lt;div style=&quot;font-size: 30px;&quot;&gt;&lt;font style=&quot;font-size: 30px;&quot; face=&quot;Times New Roman&quot;&gt;PoD 2 &lt;/font&gt;&lt;/div&gt;" style="text;html=1;align=center;verticalAlign=middle;resizable=0;points=[];autosize=1;fontSize=30;" parent="2GTVWRp6U-cZcLKtKoB1-3" vertex="1">
          <mxGeometry x="458" y="415" width="100" height="50" as="geometry" />
        </mxCell>
        <mxCell id="rLoegdF59TgYcEcmEnVo-94" value="" style="shape=curlyBracket;whiteSpace=wrap;html=1;rounded=1;direction=north;" parent="2GTVWRp6U-cZcLKtKoB1-3" vertex="1">
          <mxGeometry x="675" y="410" width="240" height="20" as="geometry" />
        </mxCell>
        <mxCell id="rLoegdF59TgYcEcmEnVo-95" value="&lt;div style=&quot;font-size: 30px;&quot;&gt;&lt;font style=&quot;font-size: 30px;&quot; face=&quot;Times New Roman&quot;&gt;PoD n&amp;nbsp;&lt;br style=&quot;font-size: 30px;&quot;&gt;&lt;/font&gt;&lt;/div&gt;" style="text;html=1;align=center;verticalAlign=middle;resizable=0;points=[];autosize=1;fontSize=30;" parent="2GTVWRp6U-cZcLKtKoB1-3" vertex="1">
          <mxGeometry x="743" y="415" width="110" height="50" as="geometry" />
        </mxCell>
        <mxCell id="9XSjgnELGqiL13iphQyL-166" value="" style="endArrow=classic;html=1;strokeWidth=1;startArrow=classic;startFill=1;entryX=0.5;entryY=1;entryDx=0;entryDy=0;exitX=0.125;exitY=0;exitDx=0;exitDy=0;exitPerimeter=0;" parent="2GTVWRp6U-cZcLKtKoB1-3" source="LMLSj2MRwrwGWkM6ZcZf-52" target="xZ4NWWlWtNFby_w6AUAY-10" edge="1">
          <mxGeometry width="50" height="50" relative="1" as="geometry">
            <mxPoint x="155" y="137" as="sourcePoint" />
            <mxPoint x="135" y="-25" as="targetPoint" />
          </mxGeometry>
        </mxCell>
        <mxCell id="xZ4NWWlWtNFby_w6AUAY-9" value="" style="rounded=0;whiteSpace=wrap;html=1;" parent="2GTVWRp6U-cZcLKtKoB1-3" vertex="1">
          <mxGeometry x="175" y="60" width="10" height="5" as="geometry" />
        </mxCell>
        <mxCell id="xZ4NWWlWtNFby_w6AUAY-10" value="" style="rounded=0;whiteSpace=wrap;html=1;" parent="2GTVWRp6U-cZcLKtKoB1-3" vertex="1">
          <mxGeometry x="175" y="71" width="20" height="9" as="geometry" />
        </mxCell>
        <mxCell id="xZ4NWWlWtNFby_w6AUAY-11" value="" style="rounded=0;whiteSpace=wrap;html=1;" parent="2GTVWRp6U-cZcLKtKoB1-3" vertex="1">
          <mxGeometry x="185" y="60" width="10" height="5" as="geometry" />
        </mxCell>
        <mxCell id="xZ4NWWlWtNFby_w6AUAY-12" value="" style="endArrow=classic;html=1;rounded=1;strokeWidth=1;fontSize=4;endSize=1;startSize=3;entryX=0.25;entryY=0;entryDx=0;entryDy=0;exitX=0.5;exitY=1;exitDx=0;exitDy=0;" parent="2GTVWRp6U-cZcLKtKoB1-3" source="xZ4NWWlWtNFby_w6AUAY-9" target="xZ4NWWlWtNFby_w6AUAY-10" edge="1">
          <mxGeometry width="50" height="50" relative="1" as="geometry">
            <mxPoint x="181" y="40" as="sourcePoint" />
            <mxPoint x="181" y="50" as="targetPoint" />
          </mxGeometry>
        </mxCell>
        <mxCell id="xZ4NWWlWtNFby_w6AUAY-13" value="" style="endArrow=classic;html=1;rounded=1;strokeWidth=1;fontSize=4;endSize=1;startSize=3;entryX=0.25;entryY=0;entryDx=0;entryDy=0;exitX=0.5;exitY=1;exitDx=0;exitDy=0;" parent="2GTVWRp6U-cZcLKtKoB1-3" edge="1">
          <mxGeometry width="50" height="50" relative="1" as="geometry">
            <mxPoint x="190" y="70.99999999999977" as="sourcePoint" />
            <mxPoint x="190" y="65" as="targetPoint" />
          </mxGeometry>
        </mxCell>
        <mxCell id="xZ4NWWlWtNFby_w6AUAY-14" value="" style="group" parent="2GTVWRp6U-cZcLKtKoB1-3" vertex="1" connectable="0" treatAsSingle="0">
          <mxGeometry x="205" y="40" width="42" height="25" as="geometry" />
        </mxCell>
        <mxCell id="xZ4NWWlWtNFby_w6AUAY-15" value="" style="group" parent="xZ4NWWlWtNFby_w6AUAY-14" vertex="1" connectable="0" treatAsSingle="0">
          <mxGeometry width="42" height="25" as="geometry" />
        </mxCell>
        <mxCell id="xZ4NWWlWtNFby_w6AUAY-16" value="" style="group" parent="xZ4NWWlWtNFby_w6AUAY-15" vertex="1" connectable="0" treatAsSingle="0">
          <mxGeometry width="42" height="25" as="geometry" />
        </mxCell>
        <mxCell id="xZ4NWWlWtNFby_w6AUAY-17" value="" style="group" parent="xZ4NWWlWtNFby_w6AUAY-16" vertex="1" connectable="0" treatAsSingle="0">
          <mxGeometry width="42" height="25" as="geometry" />
        </mxCell>
        <mxCell id="xZ4NWWlWtNFby_w6AUAY-18" value="" style="group" parent="xZ4NWWlWtNFby_w6AUAY-17" vertex="1" connectable="0" treatAsSingle="0">
          <mxGeometry width="42" height="25" as="geometry" />
        </mxCell>
        <mxCell id="xZ4NWWlWtNFby_w6AUAY-19" value="" style="group" parent="xZ4NWWlWtNFby_w6AUAY-18" vertex="1" connectable="0" treatAsSingle="0">
          <mxGeometry width="42" height="25" as="geometry" />
        </mxCell>
        <mxCell id="xZ4NWWlWtNFby_w6AUAY-20" value="" style="rounded=0;whiteSpace=wrap;html=1;" parent="xZ4NWWlWtNFby_w6AUAY-19" vertex="1">
          <mxGeometry x="20" y="20" width="10" height="5" as="geometry" />
        </mxCell>
        <mxCell id="xZ4NWWlWtNFby_w6AUAY-21" value="" style="rounded=0;whiteSpace=wrap;html=1;" parent="2GTVWRp6U-cZcLKtKoB1-3" vertex="1">
          <mxGeometry x="225" y="71" width="20" height="9" as="geometry" />
        </mxCell>
        <mxCell id="xZ4NWWlWtNFby_w6AUAY-22" value="" style="rounded=0;whiteSpace=wrap;html=1;" parent="2GTVWRp6U-cZcLKtKoB1-3" vertex="1">
          <mxGeometry x="235" y="60" width="10" height="5" as="geometry" />
        </mxCell>
        <mxCell id="xZ4NWWlWtNFby_w6AUAY-23" value="" style="endArrow=classic;html=1;rounded=1;strokeWidth=1;fontSize=4;endSize=1;startSize=3;entryX=0.25;entryY=0;entryDx=0;entryDy=0;exitX=0.5;exitY=1;exitDx=0;exitDy=0;" parent="2GTVWRp6U-cZcLKtKoB1-3" source="xZ4NWWlWtNFby_w6AUAY-20" target="xZ4NWWlWtNFby_w6AUAY-21" edge="1">
          <mxGeometry width="50" height="50" relative="1" as="geometry">
            <mxPoint x="231" y="40" as="sourcePoint" />
            <mxPoint x="231" y="50" as="targetPoint" />
          </mxGeometry>
        </mxCell>
        <mxCell id="xZ4NWWlWtNFby_w6AUAY-24" value="" style="endArrow=classic;html=1;rounded=1;strokeWidth=1;fontSize=4;endSize=1;startSize=3;entryX=0.25;entryY=0;entryDx=0;entryDy=0;exitX=0.5;exitY=1;exitDx=0;exitDy=0;" parent="2GTVWRp6U-cZcLKtKoB1-3" edge="1">
          <mxGeometry width="50" height="50" relative="1" as="geometry">
            <mxPoint x="240" y="70.99999999999977" as="sourcePoint" />
            <mxPoint x="240" y="65" as="targetPoint" />
          </mxGeometry>
        </mxCell>
        <mxCell id="xZ4NWWlWtNFby_w6AUAY-25" value="" style="rounded=0;whiteSpace=wrap;html=1;" parent="2GTVWRp6U-cZcLKtKoB1-3" vertex="1">
          <mxGeometry x="275" y="60" width="10" height="5" as="geometry" />
        </mxCell>
        <mxCell id="xZ4NWWlWtNFby_w6AUAY-26" value="" style="rounded=0;whiteSpace=wrap;html=1;" parent="2GTVWRp6U-cZcLKtKoB1-3" vertex="1">
          <mxGeometry x="275" y="71" width="20" height="9" as="geometry" />
        </mxCell>
        <mxCell id="xZ4NWWlWtNFby_w6AUAY-27" value="" style="rounded=0;whiteSpace=wrap;html=1;" parent="2GTVWRp6U-cZcLKtKoB1-3" vertex="1">
          <mxGeometry x="285" y="60" width="10" height="5" as="geometry" />
        </mxCell>
        <mxCell id="xZ4NWWlWtNFby_w6AUAY-28" value="" style="endArrow=classic;html=1;rounded=1;strokeWidth=1;fontSize=4;endSize=1;startSize=3;entryX=0.25;entryY=0;entryDx=0;entryDy=0;exitX=0.5;exitY=1;exitDx=0;exitDy=0;" parent="2GTVWRp6U-cZcLKtKoB1-3" source="xZ4NWWlWtNFby_w6AUAY-25" target="xZ4NWWlWtNFby_w6AUAY-26" edge="1">
          <mxGeometry width="50" height="50" relative="1" as="geometry">
            <mxPoint x="281" y="40" as="sourcePoint" />
            <mxPoint x="281" y="50" as="targetPoint" />
          </mxGeometry>
        </mxCell>
        <mxCell id="xZ4NWWlWtNFby_w6AUAY-29" value="" style="endArrow=classic;html=1;rounded=1;strokeWidth=1;fontSize=4;endSize=1;startSize=3;entryX=0.25;entryY=0;entryDx=0;entryDy=0;exitX=0.5;exitY=1;exitDx=0;exitDy=0;" parent="2GTVWRp6U-cZcLKtKoB1-3" edge="1">
          <mxGeometry width="50" height="50" relative="1" as="geometry">
            <mxPoint x="290" y="70.99999999999977" as="sourcePoint" />
            <mxPoint x="290" y="65" as="targetPoint" />
          </mxGeometry>
        </mxCell>
        <mxCell id="xZ4NWWlWtNFby_w6AUAY-30" value="" style="endArrow=classic;html=1;strokeWidth=1;startArrow=classic;startFill=1;entryX=0.5;entryY=1;entryDx=0;entryDy=0;exitX=0.25;exitY=0;exitDx=0;exitDy=0;" parent="2GTVWRp6U-cZcLKtKoB1-3" source="rLoegdF59TgYcEcmEnVo-2" target="xZ4NWWlWtNFby_w6AUAY-21" edge="1">
          <mxGeometry width="50" height="50" relative="1" as="geometry">
            <mxPoint x="165" y="147" as="sourcePoint" />
            <mxPoint x="175" y="90" as="targetPoint" />
          </mxGeometry>
        </mxCell>
        <mxCell id="xZ4NWWlWtNFby_w6AUAY-31" value="" style="endArrow=classic;html=1;strokeWidth=1;startArrow=classic;startFill=1;entryX=0.5;entryY=1;entryDx=0;entryDy=0;exitX=0.25;exitY=0;exitDx=0;exitDy=0;" parent="2GTVWRp6U-cZcLKtKoB1-3" source="rLoegdF59TgYcEcmEnVo-36" target="xZ4NWWlWtNFby_w6AUAY-26" edge="1">
          <mxGeometry width="50" height="50" relative="1" as="geometry">
            <mxPoint x="455" y="150" as="sourcePoint" />
            <mxPoint x="225" y="90" as="targetPoint" />
          </mxGeometry>
        </mxCell>
        <mxCell id="xZ4NWWlWtNFby_w6AUAY-36" value="" style="rounded=0;whiteSpace=wrap;html=1;" parent="2GTVWRp6U-cZcLKtKoB1-3" vertex="1">
          <mxGeometry x="445" y="60" width="10" height="5" as="geometry" />
        </mxCell>
        <mxCell id="xZ4NWWlWtNFby_w6AUAY-37" value="" style="rounded=0;whiteSpace=wrap;html=1;" parent="2GTVWRp6U-cZcLKtKoB1-3" vertex="1">
          <mxGeometry x="445" y="71" width="20" height="9" as="geometry" />
        </mxCell>
        <mxCell id="xZ4NWWlWtNFby_w6AUAY-38" value="" style="rounded=0;whiteSpace=wrap;html=1;" parent="2GTVWRp6U-cZcLKtKoB1-3" vertex="1">
          <mxGeometry x="455" y="60" width="10" height="5" as="geometry" />
        </mxCell>
        <mxCell id="xZ4NWWlWtNFby_w6AUAY-39" value="" style="endArrow=classic;html=1;rounded=1;strokeWidth=1;fontSize=4;endSize=1;startSize=3;entryX=0.25;entryY=0;entryDx=0;entryDy=0;exitX=0.5;exitY=1;exitDx=0;exitDy=0;" parent="2GTVWRp6U-cZcLKtKoB1-3" source="xZ4NWWlWtNFby_w6AUAY-36" target="xZ4NWWlWtNFby_w6AUAY-37" edge="1">
          <mxGeometry width="50" height="50" relative="1" as="geometry">
            <mxPoint x="451" y="40" as="sourcePoint" />
            <mxPoint x="451" y="50" as="targetPoint" />
          </mxGeometry>
        </mxCell>
        <mxCell id="xZ4NWWlWtNFby_w6AUAY-40" value="" style="endArrow=classic;html=1;rounded=1;strokeWidth=1;fontSize=4;endSize=1;startSize=3;entryX=0.25;entryY=0;entryDx=0;entryDy=0;exitX=0.5;exitY=1;exitDx=0;exitDy=0;" parent="2GTVWRp6U-cZcLKtKoB1-3" edge="1">
          <mxGeometry width="50" height="50" relative="1" as="geometry">
            <mxPoint x="460" y="70.99999999999977" as="sourcePoint" />
            <mxPoint x="460" y="65" as="targetPoint" />
          </mxGeometry>
        </mxCell>
        <mxCell id="xZ4NWWlWtNFby_w6AUAY-41" value="" style="rounded=0;whiteSpace=wrap;html=1;" parent="2GTVWRp6U-cZcLKtKoB1-3" vertex="1">
          <mxGeometry x="495" y="60" width="10" height="5" as="geometry" />
        </mxCell>
        <mxCell id="xZ4NWWlWtNFby_w6AUAY-42" value="" style="rounded=0;whiteSpace=wrap;html=1;" parent="2GTVWRp6U-cZcLKtKoB1-3" vertex="1">
          <mxGeometry x="495" y="71" width="20" height="9" as="geometry" />
        </mxCell>
        <mxCell id="xZ4NWWlWtNFby_w6AUAY-43" value="" style="rounded=0;whiteSpace=wrap;html=1;" parent="2GTVWRp6U-cZcLKtKoB1-3" vertex="1">
          <mxGeometry x="505" y="60" width="10" height="5" as="geometry" />
        </mxCell>
        <mxCell id="xZ4NWWlWtNFby_w6AUAY-44" value="" style="endArrow=classic;html=1;rounded=1;strokeWidth=1;fontSize=4;endSize=1;startSize=3;entryX=0.25;entryY=0;entryDx=0;entryDy=0;exitX=0.5;exitY=1;exitDx=0;exitDy=0;" parent="2GTVWRp6U-cZcLKtKoB1-3" source="xZ4NWWlWtNFby_w6AUAY-41" target="xZ4NWWlWtNFby_w6AUAY-42" edge="1">
          <mxGeometry width="50" height="50" relative="1" as="geometry">
            <mxPoint x="501" y="40" as="sourcePoint" />
            <mxPoint x="501" y="50" as="targetPoint" />
          </mxGeometry>
        </mxCell>
        <mxCell id="xZ4NWWlWtNFby_w6AUAY-45" value="" style="endArrow=classic;html=1;rounded=1;strokeWidth=1;fontSize=4;endSize=1;startSize=3;entryX=0.25;entryY=0;entryDx=0;entryDy=0;exitX=0.5;exitY=1;exitDx=0;exitDy=0;" parent="2GTVWRp6U-cZcLKtKoB1-3" edge="1">
          <mxGeometry width="50" height="50" relative="1" as="geometry">
            <mxPoint x="510" y="70.99999999999977" as="sourcePoint" />
            <mxPoint x="510" y="65" as="targetPoint" />
          </mxGeometry>
        </mxCell>
        <mxCell id="xZ4NWWlWtNFby_w6AUAY-46" value="" style="rounded=0;whiteSpace=wrap;html=1;" parent="2GTVWRp6U-cZcLKtKoB1-3" vertex="1">
          <mxGeometry x="545" y="60" width="10" height="5" as="geometry" />
        </mxCell>
        <mxCell id="xZ4NWWlWtNFby_w6AUAY-47" value="" style="rounded=0;whiteSpace=wrap;html=1;" parent="2GTVWRp6U-cZcLKtKoB1-3" vertex="1">
          <mxGeometry x="545" y="71" width="20" height="9" as="geometry" />
        </mxCell>
        <mxCell id="xZ4NWWlWtNFby_w6AUAY-48" value="" style="rounded=0;whiteSpace=wrap;html=1;" parent="2GTVWRp6U-cZcLKtKoB1-3" vertex="1">
          <mxGeometry x="555" y="60" width="10" height="5" as="geometry" />
        </mxCell>
        <mxCell id="xZ4NWWlWtNFby_w6AUAY-49" value="" style="endArrow=classic;html=1;rounded=1;strokeWidth=1;fontSize=4;endSize=1;startSize=3;entryX=0.25;entryY=0;entryDx=0;entryDy=0;exitX=0.5;exitY=1;exitDx=0;exitDy=0;" parent="2GTVWRp6U-cZcLKtKoB1-3" source="xZ4NWWlWtNFby_w6AUAY-46" target="xZ4NWWlWtNFby_w6AUAY-47" edge="1">
          <mxGeometry width="50" height="50" relative="1" as="geometry">
            <mxPoint x="551" y="40" as="sourcePoint" />
            <mxPoint x="551" y="50" as="targetPoint" />
          </mxGeometry>
        </mxCell>
        <mxCell id="xZ4NWWlWtNFby_w6AUAY-50" value="" style="endArrow=classic;html=1;rounded=1;strokeWidth=1;fontSize=4;endSize=1;startSize=3;entryX=0.25;entryY=0;entryDx=0;entryDy=0;exitX=0.5;exitY=1;exitDx=0;exitDy=0;" parent="2GTVWRp6U-cZcLKtKoB1-3" edge="1">
          <mxGeometry width="50" height="50" relative="1" as="geometry">
            <mxPoint x="560" y="70.99999999999977" as="sourcePoint" />
            <mxPoint x="560" y="65" as="targetPoint" />
          </mxGeometry>
        </mxCell>
        <mxCell id="xZ4NWWlWtNFby_w6AUAY-51" value="" style="rounded=0;whiteSpace=wrap;html=1;" parent="2GTVWRp6U-cZcLKtKoB1-3" vertex="1">
          <mxGeometry x="735" y="60" width="10" height="5" as="geometry" />
        </mxCell>
        <mxCell id="xZ4NWWlWtNFby_w6AUAY-52" value="" style="rounded=0;whiteSpace=wrap;html=1;" parent="2GTVWRp6U-cZcLKtKoB1-3" vertex="1">
          <mxGeometry x="735" y="71" width="20" height="9" as="geometry" />
        </mxCell>
        <mxCell id="xZ4NWWlWtNFby_w6AUAY-53" value="" style="rounded=0;whiteSpace=wrap;html=1;" parent="2GTVWRp6U-cZcLKtKoB1-3" vertex="1">
          <mxGeometry x="745" y="60" width="10" height="5" as="geometry" />
        </mxCell>
        <mxCell id="xZ4NWWlWtNFby_w6AUAY-54" value="" style="endArrow=classic;html=1;rounded=1;strokeWidth=1;fontSize=4;endSize=1;startSize=3;entryX=0.25;entryY=0;entryDx=0;entryDy=0;exitX=0.5;exitY=1;exitDx=0;exitDy=0;" parent="2GTVWRp6U-cZcLKtKoB1-3" source="xZ4NWWlWtNFby_w6AUAY-51" target="xZ4NWWlWtNFby_w6AUAY-52" edge="1">
          <mxGeometry width="50" height="50" relative="1" as="geometry">
            <mxPoint x="741" y="40" as="sourcePoint" />
            <mxPoint x="741" y="50" as="targetPoint" />
          </mxGeometry>
        </mxCell>
        <mxCell id="xZ4NWWlWtNFby_w6AUAY-55" value="" style="endArrow=classic;html=1;rounded=1;strokeWidth=1;fontSize=4;endSize=1;startSize=3;entryX=0.25;entryY=0;entryDx=0;entryDy=0;exitX=0.5;exitY=1;exitDx=0;exitDy=0;" parent="2GTVWRp6U-cZcLKtKoB1-3" edge="1">
          <mxGeometry width="50" height="50" relative="1" as="geometry">
            <mxPoint x="750" y="70.99999999999977" as="sourcePoint" />
            <mxPoint x="750" y="65" as="targetPoint" />
          </mxGeometry>
        </mxCell>
        <mxCell id="xZ4NWWlWtNFby_w6AUAY-56" value="" style="rounded=0;whiteSpace=wrap;html=1;" parent="2GTVWRp6U-cZcLKtKoB1-3" vertex="1">
          <mxGeometry x="785" y="60" width="10" height="5" as="geometry" />
        </mxCell>
        <mxCell id="xZ4NWWlWtNFby_w6AUAY-57" value="" style="rounded=0;whiteSpace=wrap;html=1;" parent="2GTVWRp6U-cZcLKtKoB1-3" vertex="1">
          <mxGeometry x="785" y="71" width="20" height="9" as="geometry" />
        </mxCell>
        <mxCell id="xZ4NWWlWtNFby_w6AUAY-58" value="" style="rounded=0;whiteSpace=wrap;html=1;" parent="2GTVWRp6U-cZcLKtKoB1-3" vertex="1">
          <mxGeometry x="795" y="60" width="10" height="5" as="geometry" />
        </mxCell>
        <mxCell id="xZ4NWWlWtNFby_w6AUAY-59" value="" style="endArrow=classic;html=1;rounded=1;strokeWidth=1;fontSize=4;endSize=1;startSize=3;entryX=0.25;entryY=0;entryDx=0;entryDy=0;exitX=0.5;exitY=1;exitDx=0;exitDy=0;" parent="2GTVWRp6U-cZcLKtKoB1-3" source="xZ4NWWlWtNFby_w6AUAY-56" target="xZ4NWWlWtNFby_w6AUAY-57" edge="1">
          <mxGeometry width="50" height="50" relative="1" as="geometry">
            <mxPoint x="791" y="40" as="sourcePoint" />
            <mxPoint x="791" y="50" as="targetPoint" />
          </mxGeometry>
        </mxCell>
        <mxCell id="xZ4NWWlWtNFby_w6AUAY-60" value="" style="endArrow=classic;html=1;rounded=1;strokeWidth=1;fontSize=4;endSize=1;startSize=3;entryX=0.25;entryY=0;entryDx=0;entryDy=0;exitX=0.5;exitY=1;exitDx=0;exitDy=0;" parent="2GTVWRp6U-cZcLKtKoB1-3" edge="1">
          <mxGeometry width="50" height="50" relative="1" as="geometry">
            <mxPoint x="800" y="70.99999999999977" as="sourcePoint" />
            <mxPoint x="800" y="65" as="targetPoint" />
          </mxGeometry>
        </mxCell>
        <mxCell id="xZ4NWWlWtNFby_w6AUAY-61" value="" style="rounded=0;whiteSpace=wrap;html=1;" parent="2GTVWRp6U-cZcLKtKoB1-3" vertex="1">
          <mxGeometry x="835" y="60" width="10" height="5" as="geometry" />
        </mxCell>
        <mxCell id="xZ4NWWlWtNFby_w6AUAY-62" value="" style="rounded=0;whiteSpace=wrap;html=1;" parent="2GTVWRp6U-cZcLKtKoB1-3" vertex="1">
          <mxGeometry x="835" y="71" width="20" height="9" as="geometry" />
        </mxCell>
        <mxCell id="xZ4NWWlWtNFby_w6AUAY-63" value="" style="rounded=0;whiteSpace=wrap;html=1;" parent="2GTVWRp6U-cZcLKtKoB1-3" vertex="1">
          <mxGeometry x="845" y="60" width="10" height="5" as="geometry" />
        </mxCell>
        <mxCell id="xZ4NWWlWtNFby_w6AUAY-64" value="" style="endArrow=classic;html=1;rounded=1;strokeWidth=1;fontSize=4;endSize=1;startSize=3;entryX=0.25;entryY=0;entryDx=0;entryDy=0;exitX=0.5;exitY=1;exitDx=0;exitDy=0;" parent="2GTVWRp6U-cZcLKtKoB1-3" source="xZ4NWWlWtNFby_w6AUAY-61" target="xZ4NWWlWtNFby_w6AUAY-62" edge="1">
          <mxGeometry width="50" height="50" relative="1" as="geometry">
            <mxPoint x="841" y="40" as="sourcePoint" />
            <mxPoint x="841" y="50" as="targetPoint" />
          </mxGeometry>
        </mxCell>
        <mxCell id="xZ4NWWlWtNFby_w6AUAY-65" value="" style="endArrow=classic;html=1;rounded=1;strokeWidth=1;fontSize=4;endSize=1;startSize=3;entryX=0.25;entryY=0;entryDx=0;entryDy=0;exitX=0.5;exitY=1;exitDx=0;exitDy=0;" parent="2GTVWRp6U-cZcLKtKoB1-3" edge="1">
          <mxGeometry width="50" height="50" relative="1" as="geometry">
            <mxPoint x="850" y="70.99999999999977" as="sourcePoint" />
            <mxPoint x="850" y="65" as="targetPoint" />
          </mxGeometry>
        </mxCell>
        <mxCell id="xZ4NWWlWtNFby_w6AUAY-66" value="" style="endArrow=classic;html=1;strokeWidth=1;startArrow=classic;startFill=1;entryX=0.75;entryY=1;entryDx=0;entryDy=0;exitX=0.5;exitY=0;exitDx=0;exitDy=0;" parent="2GTVWRp6U-cZcLKtKoB1-3" source="LMLSj2MRwrwGWkM6ZcZf-52" target="xZ4NWWlWtNFby_w6AUAY-37" edge="1">
          <mxGeometry width="50" height="50" relative="1" as="geometry">
            <mxPoint x="185" y="147" as="sourcePoint" />
            <mxPoint x="195" y="90" as="targetPoint" />
          </mxGeometry>
        </mxCell>
        <mxCell id="xZ4NWWlWtNFby_w6AUAY-67" value="" style="endArrow=classic;html=1;strokeWidth=1;startArrow=classic;startFill=1;entryX=0.5;entryY=1;entryDx=0;entryDy=0;exitX=0.5;exitY=0;exitDx=0;exitDy=0;" parent="2GTVWRp6U-cZcLKtKoB1-3" source="rLoegdF59TgYcEcmEnVo-2" target="xZ4NWWlWtNFby_w6AUAY-42" edge="1">
          <mxGeometry width="50" height="50" relative="1" as="geometry">
            <mxPoint x="195" y="157" as="sourcePoint" />
            <mxPoint x="205" y="100" as="targetPoint" />
          </mxGeometry>
        </mxCell>
        <mxCell id="xZ4NWWlWtNFby_w6AUAY-68" value="" style="endArrow=classic;html=1;strokeWidth=1;startArrow=classic;startFill=1;entryX=0.5;entryY=1;entryDx=0;entryDy=0;exitX=0.5;exitY=0;exitDx=0;exitDy=0;" parent="2GTVWRp6U-cZcLKtKoB1-3" source="rLoegdF59TgYcEcmEnVo-36" target="xZ4NWWlWtNFby_w6AUAY-47" edge="1">
          <mxGeometry width="50" height="50" relative="1" as="geometry">
            <mxPoint x="205" y="167" as="sourcePoint" />
            <mxPoint x="215" y="110" as="targetPoint" />
          </mxGeometry>
        </mxCell>
        <mxCell id="xZ4NWWlWtNFby_w6AUAY-69" value="" style="endArrow=classic;html=1;strokeWidth=1;startArrow=classic;startFill=1;entryX=0.75;entryY=1;entryDx=0;entryDy=0;exitX=0.75;exitY=0;exitDx=0;exitDy=0;" parent="2GTVWRp6U-cZcLKtKoB1-3" source="rLoegdF59TgYcEcmEnVo-36" target="xZ4NWWlWtNFby_w6AUAY-62" edge="1">
          <mxGeometry width="50" height="50" relative="1" as="geometry">
            <mxPoint x="865" y="150" as="sourcePoint" />
            <mxPoint x="565" y="90" as="targetPoint" />
          </mxGeometry>
        </mxCell>
        <mxCell id="xZ4NWWlWtNFby_w6AUAY-70" value="" style="endArrow=classic;html=1;strokeWidth=1;startArrow=classic;startFill=1;entryX=0.5;entryY=1;entryDx=0;entryDy=0;exitX=0.75;exitY=0;exitDx=0;exitDy=0;" parent="2GTVWRp6U-cZcLKtKoB1-3" source="rLoegdF59TgYcEcmEnVo-2" target="xZ4NWWlWtNFby_w6AUAY-57" edge="1">
          <mxGeometry width="50" height="50" relative="1" as="geometry">
            <mxPoint x="865" y="150" as="sourcePoint" />
            <mxPoint x="860" y="90" as="targetPoint" />
          </mxGeometry>
        </mxCell>
        <mxCell id="xZ4NWWlWtNFby_w6AUAY-71" value="" style="endArrow=classic;html=1;strokeWidth=1;startArrow=classic;startFill=1;entryX=0.25;entryY=1;entryDx=0;entryDy=0;exitX=0.75;exitY=0;exitDx=0;exitDy=0;" parent="2GTVWRp6U-cZcLKtKoB1-3" source="LMLSj2MRwrwGWkM6ZcZf-52" target="xZ4NWWlWtNFby_w6AUAY-52" edge="1">
          <mxGeometry width="50" height="50" relative="1" as="geometry">
            <mxPoint x="875" y="160" as="sourcePoint" />
            <mxPoint x="870" y="100" as="targetPoint" />
          </mxGeometry>
        </mxCell>
      </root>
    </mxGraphModel>
  </diagram>
</mxfile>
